#!OML:ASF E:\motion texture\Top Level 1\Subject 1\Session 1\male.ASF
:FULLY-SPECIFIED
:DEGREES
111
root 18.4803 17.6079 5.33311 -302.753 -80.8177 309.815
lowerback -0.891218 1.99963 4.4448
upperback -1.77853 2.64422 1.95332
thorax -1.21865 1.26137 -0.484049
lowerneck -12.9504 -3.91074 -7.21999
upperneck 9.92927 -3.77485 -1.63246
head 5.22351 -2.2542 0.331984
rclavicle -1.39833e-014 7.95139e-015
rhumerus -28.9091 16.2424 -87.1558
rradius 124.801
rwrist -5.00554
rhand -27.5381 -23.8181
rfingers 7.12502
rthumb -0.939755 -53.7957
lclavicle -1.39833e-014 7.95139e-015
lhumerus -27.2648 -29.4419 99.4005
lradius 91.1777
lwrist -20.0574
lhand -21.8939 10.5074
lfingers 7.12502
lthumb 4.51125 40.4393
rfemur -4.68778 -3.4373 29.6289
rtibia 43.1399
rfoot -5.26131 -9.66684
rtoes -12.5762
lfemur -30.2839 -6.62775 -10.1639
ltibia 26.7196
lfoot -2.47025 -1.51812
ltoes -0.123249
112
root 18.3279 17.6103 5.34702 -306.28 -80.7894 313.15
lowerback -0.78649 1.94796 4.03379
upperback -1.76207 2.58444 1.86135
thorax -1.27582 1.23727 -0.353823
lowerneck -12.8661 -3.82526 -7.16717
upperneck 10.0637 -3.64923 -1.84893
head 5.24423 -2.21059 0.266804
rclavicle 8.02593e-015 1.66979e-014
rhumerus -28.4575 16.5954 -87.3956
rradius 126.458
rwrist -4.13899
rhand -28.5416 -23.1722
rfingers 7.12502
rthumb -1.90902 -53.1434
lclavicle 8.02593e-015 1.66979e-014
lhumerus -26.5049 -30.5543 99.4045
lradius 92.3261
lwrist -20.8959
lhand -22.3515 9.89115
lfingers 7.12502
lthumb 4.06934 39.832
rfemur -5.60936 -4.14662 29.0468
rtibia 45.3357
rfoot -2.59454 -9.69351
rtoes -11
lfemur -29.7196 -6.82695 -10.7881
ltibia 27.0655
lfoot -2.91134 -1.939
ltoes 0.477141
113
root 18.1783 17.6122 5.36023 -309.907 -80.7919 316.595
lowerback -0.653904 1.88721 3.56431
upperback -1.76343 2.51343 1.74594
thorax -1.36808 1.20773 -0.215974
lowerneck -12.7547 -3.73742 -7.12299
upperneck 10.1595 -3.5282 -2.01225
head 5.2497 -2.16447 0.220114
rclavicle 6.96368e-015 2.15681e-014
rhumerus -27.8275 17.0602 -87.5487
rradius 127.907
rwrist -3.09842
rhand -29.5762 -22.5062
rfingers 7.12502
rthumb -2.90813 -52.4662
lclavicle 6.96368e-015 2.15681e-014
lhumerus -25.6668 -31.6415 99.3151
lradius 93.4487
lwrist -21.6604
lhand -22.8239 9.43217
lfingers 7.12502
lthumb 3.61316 39.3813
rfemur -6.5746 -4.83195 28.4119
rtibia 47.5133
rfoot 0.200079 -9.72864
rtoes -8.83945
lfemur -29.1346 -6.99514 -11.4699
ltibia 27.3844
lfoot -3.43976 -2.30769
ltoes 0.866155
114
root 18.0315 17.6138 5.37266 -313.614 -80.7988 320.131
lowerback -0.526806 1.82049 3.05931
upperback -1.76411 2.43211 1.61615
thorax -1.45689 1.1738 -0.0721996
lowerneck -12.6136 -3.65158 -7.08543
upperneck 10.1956 -3.41727 -2.13786
head 5.23262 -2.11884 0.186535
rclavicle -1.63314e-014 -1.89839e-014
rhumerus -27.0156 17.6023 -87.5991
rradius 129.134
rwrist -1.81991
rhand -30.6668 -21.842
rfingers 7.12502
rthumb -3.96134 -51.785
lclavicle -1.63314e-014 -1.89839e-014
lhumerus -24.72 -32.7062 99.1271
lradius 94.5316
lwrist -22.2809
lhand -23.3161 9.16649
lfingers 7.12502
lthumb 3.13788 39.1231
rfemur -7.5717 -5.49302 27.7555
rtibia 49.6546
rfoot 2.99336 -9.81998
rtoes -6.49489
lfemur -28.5392 -7.12407 -12.1825
ltibia 27.6745
lfoot -4.01797 -2.66267
ltoes 1.10767
115
root 17.8875 17.6153 5.38435 -317.288 -80.7836 323.644
lowerback -0.417168 1.75017 2.55267
upperback -1.75927 2.34298 1.48153
thorax -1.52932 1.13634 0.0689609
lowerneck -12.4386 -3.56853 -7.05924
upperneck 10.1728 -3.3168 -2.23003
head 5.19243 -2.07429 0.165471
rclavicle 1.1691e-014 -5.86415e-015
rhumerus -26.0408 18.1927 -87.5462
rradius 130.144
rwrist -0.296153
rhand -31.8151 -21.1608
rfingers 7.12502
rthumb -5.07019 -51.0802
lclavicle 1.1691e-014 -5.86415e-015
lhumerus -23.6756 -33.7416 98.8445
lradius 95.5637
lwrist -22.7336
lhand -23.8433 9.04334
lfingers 7.12502
lthumb 2.62871 39.0069
rfemur -8.59211 -6.12676 27.1149
rtibia 51.7472
rfoot 5.61086 -10.047
rtoes -4.26059
lfemur -27.9403 -7.2115 -12.8857
ltibia 27.9351
lfoot -4.60471 -3.02658
ltoes 1.32983
116
root 17.7461 17.6169 5.39542 -320.777 -80.73 326.972
lowerback -0.321206 1.67163 2.07945
upperback -1.74074 2.24039 1.35382
thorax -1.57825 1.09201 0.200008
lowerneck -12.264 -3.48642 -7.04408
upperneck 10.1111 -3.21812 -2.31154
head 5.1406 -2.029 0.149579
rclavicle 8.71547e-015 1.82882e-014
rhumerus -24.9125 18.8282 -87.396
rradius 130.958
rwrist 1.39249
rhand -33.0136 -20.5122
rfingers 7.12502
rthumb -6.22731 -50.4007
lclavicle 8.71547e-015 1.82882e-014
lhumerus -22.5124 -34.7187 98.4565
lradius 96.5203
lwrist -23.0073
lhand -24.4159 9.04693
lfingers 7.12502
lthumb 2.07571 39.0166
rfemur -9.61994 -6.73729 26.5207
rtibia 53.7802
rfoot 7.87145 -10.4472
rtoes -2.24255
lfemur -27.3262 -7.26725 -13.5447
ltibia 28.1534
lfoot -5.17122 -3.38907
ltoes 1.52168
